<svg width="12" height="12" viewBox="0 0 12 12" fill="none" xmlns="http://www.w3.org/2000/svg">
<g clip-path="url(#clip0_103_170)">
<path d="M8.29785 0C8.74287 0.000122521 9.16529 0.198156 9.4502 0.540039L11.5 3V9.59961C11.5 10.4393 11.5002 10.8598 11.3369 11.1807L11.2783 11.2842C11.1342 11.5191 10.9276 11.7111 10.6807 11.8369L10.5557 11.8906C10.2488 12.0002 9.83484 12 9.09961 12H2.90039L2.34375 11.9971C1.93727 11.9907 1.66355 11.9689 1.44434 11.8906L1.31934 11.8369C1.03709 11.6931 0.806896 11.4629 0.663086 11.1807C0.499809 10.8598 0.5 10.4393 0.5 9.59961V3L2.5498 0.540039C2.83471 0.198156 3.25713 0.00012252 3.70215 0H8.29785ZM1.5 9.59961C1.5 10.0361 1.50124 10.3039 1.51758 10.5039C1.52518 10.5969 1.53394 10.6533 1.54199 10.6875C1.54576 10.7035 1.54982 10.7133 1.55176 10.7188C1.55336 10.7232 1.5543 10.7258 1.55469 10.7266C1.60262 10.8206 1.67936 10.8974 1.77344 10.9453C1.77423 10.9457 1.77677 10.9466 1.78125 10.9482C1.78673 10.9502 1.79649 10.9542 1.8125 10.958C1.84671 10.9661 1.90312 10.9748 1.99609 10.9824C2.19605 10.9988 2.46385 11 2.90039 11H9.09961C9.53615 11 9.80394 10.9988 10.0039 10.9824C10.0969 10.9748 10.1533 10.9661 10.1875 10.958C10.2035 10.9542 10.2133 10.9502 10.2188 10.9482C10.2232 10.9466 10.2258 10.9457 10.2266 10.9453C10.3206 10.8974 10.3974 10.8206 10.4453 10.7266C10.4457 10.7258 10.4466 10.7232 10.4482 10.7188C10.4502 10.7133 10.4542 10.7035 10.458 10.6875C10.4661 10.6533 10.4748 10.5969 10.4824 10.5039C10.4988 10.3039 10.5 10.0361 10.5 9.59961V4H1.5V9.59961ZM7.5 5C7.77614 5 8 5.22386 8 5.5C8 5.77614 7.77614 6 7.5 6H4.5C4.22386 6 4 5.77614 4 5.5C4 5.22386 4.22386 5 4.5 5H7.5ZM3.70215 1C3.55395 1.00012 3.41327 1.06585 3.31836 1.17969L1.80176 3H10.1982L8.68164 1.17969C8.58673 1.06585 8.44605 1.00012 8.29785 1H3.70215Z" fill="black"/>
</g>
<defs>
<clipPath id="clip0_103_170">
<rect width="12" height="12" fill="white"/>
</clipPath>
</defs>
</svg>
