<svg width="44" height="44" viewBox="0 0 44 44" fill="none" xmlns="http://www.w3.org/2000/svg">
<path d="M22 0C34.1503 0 44 9.84974 44 22C44 34.1503 34.1503 44 22 44C9.84974 44 0 34.1503 0 22C0 9.84974 9.84974 0 22 0ZM20.875 26.2246C20.175 26.2246 19.5665 26.4833 19.0498 27C18.5499 27.4999 18.2999 28.0999 18.2998 28.7998C18.2998 29.4998 18.5499 30.1084 19.0498 30.625C19.5665 31.125 20.175 31.375 20.875 31.375C21.575 31.375 22.1748 31.1249 22.6748 30.625C23.1915 30.1083 23.4502 29.4998 23.4502 28.7998C23.4501 28.0999 23.1914 27.5 22.6748 27C22.1748 26.4834 21.575 26.2246 20.875 26.2246ZM21.0996 13.2002C19.6165 13.2003 18.3749 13.5666 17.375 14.2998C16.375 15.0331 15.7083 16.0332 15.375 17.2998L19.4004 18.375C19.5337 18.0417 19.7421 17.7664 20.0254 17.5498C20.3252 17.3167 20.6833 17.2003 21.0996 17.2002C21.7161 17.2002 22.2163 17.3749 22.5996 17.7246C22.9829 18.0746 23.1748 18.5166 23.1748 19.0498C23.1748 19.7331 22.9665 20.2254 22.5498 20.5254C22.1332 20.8253 21.5913 21.0163 20.9248 21.0996L18.5996 21.3252L18.7754 25.6748H22.9746L23.0498 23.7754C23.9331 23.6254 24.6996 23.3414 25.3496 22.9248C26.0163 22.4915 26.525 21.9498 26.875 21.2998C27.2416 20.6332 27.4248 19.8831 27.4248 19.0498C27.4248 17.8999 27.1495 16.892 26.5996 16.0254C26.0663 15.1421 25.325 14.4502 24.375 13.9502C23.425 13.4502 22.3329 13.2002 21.0996 13.2002Z" fill="black"/>
</svg>
