<svg width="60" height="48" viewBox="0 0 60 48" fill="none" xmlns="http://www.w3.org/2000/svg">
<path d="M13.0137 16.9141L16.5105 17.0634L16.4122 19.3641L14.2605 20.1844L13.0137 16.9141ZM37.7568 10.0449L38.0091 13.5358L35.9706 13.6831L34.8405 11.9802L37.7568 10.0449ZM26.5 4V7.5C21.1239 7.5 16.7377 11.7441 16.5105 17.0634L13.0137 16.9141L9.51686 16.7647C9.90331 7.71601 17.3571 0.5 26.5 0.5V4ZM13.0137 16.9141L14.2605 20.1844C10.3024 21.6935 7.5 25.5239 7.5 30H4H0.5C0.5 22.525 5.18509 16.1531 11.7668 13.6437L13.0137 16.9141ZM4 30H7.5C7.5 35.799 12.201 40.5 18 40.5V44V47.5C8.33502 47.5 0.5 39.665 0.5 30H4ZM18 44V40.5H39V44V47.5H18V44ZM39 44V40.5C46.4558 40.5 52.5 34.4558 52.5 27H56H59.5C59.5 38.3218 50.3218 47.5 39 47.5V44ZM56 27H52.5C52.5 19.5442 46.4558 13.5 39 13.5V10V6.5C50.3218 6.5 59.5 15.6782 59.5 27H56ZM39 10V13.5C38.6671 13.5 38.3367 13.5121 38.0091 13.5358L37.7568 10.0449L37.5045 6.55403C37.998 6.51836 38.4968 6.5 39 6.5V10ZM37.7568 10.0449L34.8405 11.9802C33.0439 9.27273 29.9782 7.5 26.5 7.5V4V0.5C32.4219 0.5 37.6345 3.53071 40.6731 8.10967L37.7568 10.0449Z" fill="#007CFF"/>
</svg>
