<svg width="61" height="61" viewBox="0 0 61 61" fill="none" xmlns="http://www.w3.org/2000/svg">
<rect width="61" height="61" fill="#FFC74D"/>
<mask id="mask0_183_8" style="mask-type:luminance" maskUnits="userSpaceOnUse" x="17" y="17" width="28" height="28">
<path d="M17 17H45V45H17V17Z" fill="white"/>
</mask>
<g mask="url(#mask0_183_8)">
<path d="M30.8997 17C23.79 17 24.2333 20.0987 24.2333 20.0987L24.2415 23.3093H31.0245V24.273H21.55C21.55 24.273 17 23.7538 17 30.9638C17 38.1738 20.9702 37.9172 20.9702 37.9172H23.3385V34.5723C23.3385 34.5723 23.2113 30.5823 27.2468 30.5823H33.9738C33.9738 30.5823 37.7538 30.643 37.7538 26.9097V20.7357C37.7538 20.7357 38.3278 17 30.8997 17ZM27.1593 19.1583C27.8337 19.1583 28.3797 19.7067 28.3797 20.3857C28.3797 21.0635 27.8337 21.6118 27.1593 21.6118C26.485 21.6118 25.939 21.0635 25.939 20.3857C25.939 19.7067 26.4838 19.1583 27.1593 19.1583Z" fill="black" fill-opacity="0.65"/>
<path d="M31.1014 45.0001C38.2087 45.0001 37.7654 41.9014 37.7654 41.9014L37.7572 38.6908H30.9742V37.7271H40.4511C40.4511 37.7271 45.0011 38.2463 45.0011 31.0363C45.0011 23.8263 41.0297 24.0829 41.0297 24.0829H38.6614V27.4278C38.6614 27.4278 38.7886 31.4178 34.7531 31.4178H28.0272C28.0272 31.4178 24.2472 31.3571 24.2472 35.0904V41.2644C24.2472 41.2644 23.6732 45.0001 31.1014 45.0001ZM34.8417 42.8418C34.1662 42.8418 33.6214 42.2934 33.6214 41.6144C33.6214 40.9366 34.1662 40.3883 34.8417 40.3883C35.5161 40.3883 36.0621 40.9366 36.0621 41.6144C36.0621 42.2934 35.5161 42.8418 34.8417 42.8418Z" fill="black" fill-opacity="0.65"/>
</g>
</svg>
