<svg width="58" height="66" viewBox="0 0 58 66" fill="none" xmlns="http://www.w3.org/2000/svg">
<g clip-path="url(#clip0_1_35)">
<path d="M23.9452 6.09568C26.9006 4.38997 30.5468 4.39001 33.5021 6.09568L41.6147 10.7774L41.6196 10.7806L41.6244 10.783L49.7491 15.4285C52.7142 17.1238 54.5398 20.2708 54.5328 23.6753L54.5134 32.9944V33.0056L54.5328 42.3247C54.5398 45.7292 52.7142 48.8762 49.7491 50.5715L41.6244 55.217L41.6196 55.2194L41.6147 55.2226L33.5021 59.9043C30.5468 61.61 26.9006 61.6101 23.9452 59.9043L15.8335 55.2226L15.8278 55.2194L15.823 55.217L7.69829 50.5715C4.7333 48.8762 2.90758 45.7291 2.91459 42.3247L2.93401 33.0056V32.9944L2.91459 23.6753C2.90759 20.2709 4.7333 17.1238 7.69829 15.4285L15.823 10.783L15.8278 10.7806L15.8335 10.7774L23.9452 6.09568Z" stroke="white" stroke-width="7"/>
<path d="M26.2712 15.1352C27.7925 14.276 29.6553 14.276 31.1766 15.1352L37.2757 18.5796L43.3053 21.9528C44.8752 22.831 45.8454 24.4858 45.8415 26.2786L45.8275 33L45.8415 39.7214C45.8454 41.5143 44.8752 43.1691 43.3053 44.0473L37.2757 47.4204L31.1766 50.8649C29.6553 51.724 27.7925 51.724 26.2712 50.8649L20.1721 47.4204L14.1425 44.0473C12.5727 43.1691 11.6024 41.5143 11.6062 39.7214L11.6204 33L11.6062 26.2786C11.6024 24.4858 12.5727 22.831 14.1425 21.9528L20.1721 18.5796L26.2712 15.1352Z" fill="white"/>
</g>
<defs>
<clipPath id="clip0_1_35">
<rect width="58" height="66" fill="white"/>
</clipPath>
</defs>
</svg>
