<svg width="61" height="61" viewBox="0 0 61 61" fill="none" xmlns="http://www.w3.org/2000/svg">
<rect width="61" height="61" fill="#4D6AFF"/>
<path fill-rule="evenodd" clip-rule="evenodd" d="M18 19.3014C18 18.691 18.2469 18.1056 18.6865 17.6741C19.126 17.2425 19.7221 17 20.3438 17H40.6562C41.2779 17 41.874 17.2425 42.3135 17.6741C42.7531 18.1056 43 18.691 43 19.3014V25.4384C43 26.0487 42.7531 26.6341 42.3135 27.0657C41.874 27.4973 41.2779 27.7397 40.6562 27.7397H20.3438C19.7221 27.7397 19.126 27.4973 18.6865 27.0657C18.2469 26.6341 18 26.0487 18 25.4384V19.3014ZM21.2078 22.3699C21.2078 21.963 21.3724 21.5727 21.6655 21.285C21.9585 20.9973 22.3559 20.8356 22.7703 20.8356C23.1847 20.8356 23.5821 20.9973 23.8752 21.285C24.1682 21.5727 24.3328 21.963 24.3328 22.3699C24.3328 22.7768 24.1682 23.167 23.8752 23.4547C23.5821 23.7425 23.1847 23.9041 22.7703 23.9041C22.3559 23.9041 21.9585 23.7425 21.6655 23.4547C21.3724 23.167 21.2078 22.7768 21.2078 22.3699ZM27.4578 20.8356C27.0434 20.8356 26.646 20.9973 26.353 21.285C26.0599 21.5727 25.8953 21.963 25.8953 22.3699C25.8953 22.7768 26.0599 23.167 26.353 23.4547C26.646 23.7425 27.0434 23.9041 27.4578 23.9041C27.8722 23.9041 28.2696 23.7425 28.5627 23.4547C28.8557 23.167 29.0203 22.7768 29.0203 22.3699C29.0203 21.963 28.8557 21.5727 28.5627 21.285C28.2696 20.9973 27.8722 20.8356 27.4578 20.8356ZM18 31.5753C18 30.965 18.2469 30.3796 18.6865 29.948C19.126 29.5164 19.7221 29.274 20.3438 29.274H40.6562C41.2779 29.274 41.874 29.5164 42.3135 29.948C42.7531 30.3796 43 30.965 43 31.5753V37.7123C43 38.3227 42.7531 38.9081 42.3135 39.3396C41.874 39.7712 41.2779 40.0137 40.6562 40.0137H31.7547V42.6986H41.5203C41.8311 42.6986 42.1292 42.8199 42.349 43.0357C42.5687 43.2515 42.6922 43.5441 42.6922 43.8493C42.6922 44.1545 42.5687 44.4472 42.349 44.663C42.1292 44.8788 41.8311 45 41.5203 45H19.6453C19.3345 45 19.0364 44.8788 18.8167 44.663C18.5969 44.4472 18.4734 44.1545 18.4734 43.8493C18.4734 43.5441 18.5969 43.2515 18.8167 43.0357C19.0364 42.8199 19.3345 42.6986 19.6453 42.6986H29.4109V40.0137H20.3438C19.7221 40.0137 19.126 39.7712 18.6865 39.3396C18.2469 38.9081 18 38.3227 18 37.7123V31.5753ZM21.2078 34.6438C21.2078 34.2369 21.3724 33.8467 21.6655 33.559C21.9585 33.2712 22.3559 33.1096 22.7703 33.1096C23.1847 33.1096 23.5821 33.2712 23.8752 33.559C24.1682 33.8467 24.3328 34.2369 24.3328 34.6438C24.3328 35.0507 24.1682 35.441 23.8752 35.7287C23.5821 36.0164 23.1847 36.1781 22.7703 36.1781C22.3559 36.1781 21.9585 36.0164 21.6655 35.7287C21.3724 35.441 21.2078 35.0507 21.2078 34.6438ZM25.8953 34.6438C25.8953 34.2369 26.0599 33.8467 26.353 33.559C26.646 33.2712 27.0434 33.1096 27.4578 33.1096C27.8722 33.1096 28.2696 33.2712 28.5627 33.559C28.8557 33.8467 29.0203 34.2369 29.0203 34.6438C29.0203 35.0507 28.8557 35.441 28.5627 35.7287C28.2696 36.0164 27.8722 36.1781 27.4578 36.1781C27.0434 36.1781 26.646 36.0164 26.353 35.7287C26.0599 35.441 25.8953 35.0507 25.8953 34.6438Z" fill="black" fill-opacity="0.65"/>
</svg>
